<svg
    xmlns="http://www.w3.org/2000/svg"
    viewBox="0 0 24 24"
    id="vector"
    opacity="1">
    <path
        id="path"
        d="M 12 2 C 6.48 2 2 6.48 2 12 C 2 17.52 6.48 22 12 22 C 17.52 22 22 17.52 22 12 C 22 6.48 17.52 2 12 2 Z M 12 20 C 7.58 20 4 16.42 4 12 C 4 7.58 7.58 4 12 4 C 16.42 4 20 7.58 20 12 C 20 16.42 16.42 20 12 20 Z"
        fill="#333333"/>
    <path
        id="path_1"
        d="M 0 0 L 24 0 L 24 24 L 0 24 Z"
        fill="none"/>
    <path
        id="path_2"
        d="M 10.897 19.95 C 6.551 19.349 3.431 15.215 4.063 10.896 C 4.555 7.531 7.095 4.824 10.394 4.147 C 14.257 3.355 18.17 5.543 19.524 9.253 C 20.07 10.749 20.162 12.461 19.777 13.976 C 19.546 14.886 18.811 16.339 18.207 17.077 C 16.49 19.178 13.581 20.322 10.897 19.95 Z"
        fill="#82c91e"
        stroke-width="0.76779664"
        stroke-linecap="round"
        stroke-linejoin="round"/>
    <path
        id="path_3"
        d="M 10.897 19.95 C 6.551 19.349 3.431 15.215 4.063 10.896 C 4.555 7.531 7.095 4.824 10.394 4.147 C 14.257 3.355 18.17 5.543 19.524 9.253 C 20.07 10.749 20.162 12.461 19.777 13.976 C 19.546 14.886 18.811 16.339 18.207 17.077 C 16.49 19.178 13.581 20.322 10.897 19.95 Z"
        fill="#82c91e"
        stroke="#ffffff"
        stroke-width="1.5"
        stroke-linecap="round"
        stroke-linejoin="round"/>
    <path
        id="path_4"
        d="M 10.897 19.95 C 6.551 19.349 3.431 15.215 4.063 10.896 C 4.555 7.531 7.095 4.824 10.394 4.147 C 14.257 3.355 18.17 5.543 19.524 9.253 C 20.07 10.749 20.162 12.461 19.777 13.976 C 19.546 14.886 18.811 16.339 18.207 17.077 C 16.49 19.178 13.581 20.322 10.897 19.95 Z"
        fill="#2e3d4f"
        stroke="#ffffff"
        stroke-width="1"
        stroke-linecap="round"
        stroke-linejoin="round"/>
    <path
        id="path_5"
        d="M 10.897 19.95 C 6.551 19.349 3.431 15.215 4.063 10.896 C 4.555 7.531 7.095 4.824 10.394 4.147 C 14.257 3.355 18.17 5.543 19.524 9.253 C 20.07 10.749 20.162 12.461 19.777 13.976 C 19.546 14.886 18.811 16.339 18.207 17.077 C 16.49 19.178 13.581 20.322 10.897 19.95 Z"
        fill="#2e3d4f"
        stroke="#ffffff"
        stroke-width="1"
        stroke-linecap="round"
        stroke-linejoin="round"/>
    <path
        id="path_6"
        d="M 12 2 C 6.48 2 2 6.48 2 12 C 2 17.52 6.48 22 12 22 C 17.52 22 22 17.52 22 12 C 22 6.48 17.52 2 12 2 Z M 12 20 C 7.58 20 4 16.42 4 12 C 4 7.58 7.58 4 12 4 C 16.42 4 20 7.58 20 12 C 20 16.42 16.42 20 12 20 Z"
        fill="#333333"/>
    <path
        id="path_7"
        d="M 12 2 C 6.48 2 2 6.48 2 12 C 2 17.52 6.48 22 12 22 C 17.52 22 22 17.52 22 12 C 22 6.48 17.52 2 12 2 Z M 12 20 C 7.58 20 4 16.42 4 12 C 4 7.58 7.58 4 12 4 C 16.42 4 20 7.58 20 12 C 20 16.42 16.42 20 12 20 Z"
        fill="#333333"/>
    <path
        id="path_8"
        d="M 0 0 L 24 0 L 24 24 L 0 24 Z"
        fill="none"/>
    <path
        id="path_9"
        d="M 10.897 19.95 C 6.551 19.349 3.431 15.215 4.063 10.896 C 4.555 7.531 7.095 4.824 10.394 4.147 C 14.257 3.355 18.17 5.543 19.524 9.253 C 20.07 10.749 20.162 12.461 19.777 13.976 C 19.546 14.886 18.811 16.339 18.207 17.077 C 16.49 19.178 13.581 20.322 10.897 19.95 Z"
        fill="#82c91e"
        stroke-width="0.76779664"
        stroke-linecap="round"
        stroke-linejoin="round"/>
</svg>
