<?xml version="1.0" encoding="UTF-8" standalone="no"?>
<svg
   xmlns:dc="http://purl.org/dc/elements/1.1/"
   xmlns:cc="http://creativecommons.org/ns#"
   xmlns:rdf="http://www.w3.org/1999/02/22-rdf-syntax-ns#"
   xmlns:svg="http://www.w3.org/2000/svg"
   xmlns="http://www.w3.org/2000/svg"
   xmlns:sodipodi="http://sodipodi.sourceforge.net/DTD/sodipodi-0.dtd"
   xmlns:inkscape="http://www.inkscape.org/namespaces/inkscape"
   width="24"
   height="24"
   viewBox="0 0 24 24"
   version="1.1"
   id="svg4"
   sodipodi:docname="iconmonstr-check-mark-2.svg"
   inkscape:version="0.92.3 (2405546, 2018-03-11)">
  <metadata
     id="metadata10">
    <rdf:RDF>
      <cc:Work
         rdf:about="">
        <dc:format>image/svg+xml</dc:format>
        <dc:type
           rdf:resource="http://purl.org/dc/dcmitype/StillImage" />
      </cc:Work>
    </rdf:RDF>
  </metadata>
  <defs
     id="defs8" />
  <sodipodi:namedview
     pagecolor="#ffffff"
     bordercolor="#666666"
     borderopacity="1"
     objecttolerance="10"
     gridtolerance="10"
     guidetolerance="10"
     inkscape:pageopacity="0"
     inkscape:pageshadow="2"
     inkscape:window-width="1920"
     inkscape:window-height="1053"
     id="namedview6"
     showgrid="false"
     inkscape:zoom="16"
     inkscape:cx="36.188164"
     inkscape:cy="13.878065"
     inkscape:window-x="1920"
     inkscape:window-y="0"
     inkscape:window-maximized="1"
     inkscape:current-layer="svg4" />
  <path
     d="M9 21.035l-9-8.638 2.791-2.87 6.156 5.874 12.21-12.436 2.843 2.817z"
     id="path2" />
  <path
     style="opacity:0.55;fill:#00a000;stroke:#ffffff;stroke-width:0.02033898;stroke-miterlimit:4;stroke-dasharray:none;stroke-opacity:1;fill-opacity:1"
     d="m 4.5584127,16.696021 c -3.65688922,-3.51173 -4.42021269,-4.29105 -4.3416832,-4.432668 0.0524046,-0.0945 0.65889229,-0.729759 1.3477504,-1.411674 L 2.8169492,9.6118325 5.8366663,12.504221 c 1.6608444,1.590814 3.059852,2.892389 3.1089059,2.892389 0.049054,0 2.8033148,-2.768644 6.1205798,-6.1525422 3.317264,-3.3838983 6.060419,-6.1525424 6.095897,-6.1525424 0.03548,0 0.670406,0.6071508 1.410953,1.3492239 l 1.346446,1.349224 -7.462036,7.5834437 -7.4620348,7.583445 z"
     id="path817"
     inkscape:connector-curvature="0" />
  <path
     style="opacity:0.55;fill:#00a000;fill-opacity:1;stroke:#ffffff;stroke-width:0.02033898;stroke-miterlimit:4;stroke-dasharray:none;stroke-opacity:1"
     d="M 4.7907596,16.847004 C 2.473477,14.616298 0.50154913,12.675231 0.40869764,12.533522 L 0.23987675,12.275869 1.5375465,10.981079 2.8352161,9.6862902 4.594296,11.374509 c 2.7496314,2.638868 4.2387431,4.021682 4.3363706,4.026825 0.04932,0.0026 2.8217614,-2.754606 6.1609814,-6.1271188 l 6.07131,-6.1318423 1.340985,1.3365032 1.340985,1.3365033 -6.689065,6.7990896 c -3.678985,3.7395 -7.018194,7.134177 -7.4204636,7.543728 l -0.7313987,0.744637 z"
     id="path819"
     inkscape:connector-curvature="0" />
  <path
     style="opacity:0.55;fill:#00a000;fill-opacity:1;stroke:#ffffff;stroke-width:0.00254237;stroke-miterlimit:4;stroke-dasharray:none;stroke-opacity:1"
     d="m 2.5160485,9.911148 c 0,-0.00699 0.065784,-0.078309 0.1461864,-0.1584836 0.080403,-0.080175 0.1461865,-0.1400514 0.1461865,-0.1330599 0,0.00699 -0.065784,0.078309 -0.1461865,0.1584836 -0.080402,0.080175 -0.1461864,0.1400514 -0.1461864,0.1330599 z"
     id="path821"
     inkscape:connector-curvature="0" />
  <path
     style="opacity:0.55;fill:#00a000;fill-opacity:1;stroke:#ffffff;stroke-width:0.00254237;stroke-miterlimit:4;stroke-dasharray:none;stroke-opacity:1"
     d="M 7.8550315,14.395586 C 7.7466629,14.293067 7.4135416,13.978544 7.1147621,13.696647 6.501287,13.117835 6.2079905,12.837901 4.3274892,11.03636 2.852415,9.6232216 2.8280926,9.600122 2.815224,9.600122 c -0.00496,0 -0.3527863,0.3402728 -0.7729386,0.756162 -0.4201523,0.415889 -0.7663888,0.753686 -0.7694145,0.75066 -0.00429,-0.0043 0.6947889,-0.728464 1.4458578,-1.4977593 l 0.071822,-0.073564 2.5671982,2.4486393 c 2.7785342,2.650215 2.7253771,2.599191 2.7069017,2.598319 -0.00692,-3.26e-4 -0.10125,-0.08447 -0.2096191,-0.186993 z"
     id="path823"
     inkscape:connector-curvature="0" />
  <path
     style="opacity:0.55;fill:#00a000;fill-opacity:1;stroke:#ffffff;stroke-width:0.00254237;stroke-miterlimit:4;stroke-dasharray:none;stroke-opacity:1"
     d="m 1.614595,10.761294 c 0.00701,-0.01929 1.1677475,-1.2120195 1.1795106,-1.2120195 0.00504,0 0.031499,0.022881 0.058807,0.050848 0.027308,0.027966 0.043656,0.050847 0.03633,0.050847 -0.00733,0 -0.023867,-0.011653 -0.036756,-0.025894 -0.012889,-0.014242 -0.030876,-0.024252 -0.039971,-0.022246 -0.0091,0.00201 -0.2835333,0.2667443 -0.6098624,0.5883055 -0.3263292,0.321561 -0.5909556,0.578133 -0.5880582,0.570159 z"
     id="path825"
     inkscape:connector-curvature="0" />
  <path
     style="opacity:0.55;fill:#00a000;fill-opacity:1;stroke:#ffffff;stroke-width:0.00254237;stroke-miterlimit:4;stroke-dasharray:none;stroke-opacity:1"
     d=""
     id="path827"
     inkscape:connector-curvature="0" />
  <path
     style="opacity:0.55;fill:#00a000;fill-opacity:1;stroke:#ffffff;stroke-width:0.00254237;stroke-miterlimit:4;stroke-dasharray:none;stroke-opacity:1"
     d=""
     id="path829"
     inkscape:connector-curvature="0" />
  <path
     style="opacity:0.55;fill:#00a000;fill-opacity:1;stroke:#ffffff;stroke-width:0.00254237;stroke-miterlimit:4;stroke-dasharray:none;stroke-opacity:1"
     d=""
     id="path831"
     inkscape:connector-curvature="0" />
  <path
     style="opacity:0.55;fill:#00a000;fill-opacity:1;stroke:#ffffff;stroke-width:0.00254237;stroke-miterlimit:4;stroke-dasharray:none;stroke-opacity:1"
     d="m 4.509952,16.717268 c -2.4634902,-2.363959 -4.48459403,-4.30324 -4.49134194,-4.309514 -0.0076076,-0.0071 0.03334888,-0.05722 0.10779977,-0.131977 0.12199019,-0.1225 0.18806995,-0.163528 0.11307528,-0.07021 -0.073373,0.0913 -0.0411287,0.165545 0.18876845,0.434639 0.46151426,0.5402 1.42541764,1.48273 6.28906614,6.149615 1.1466102,1.100223 2.1282267,2.042932 2.18137,2.094909 l 0.096624,0.0945 2.6872333,-2.730871 c 4.006331,-4.071391 5.777143,-5.871789 5.891554,-5.989984 0.06275,-0.06482 0.110488,-0.104167 0.123013,-0.101378 0.01353,0.003 -1.455729,1.505574 -4.333247,4.431465 -2.394545,2.434799 -4.3584708,4.426907 -4.3642799,4.426907 -0.00581,0 -2.0261453,-1.934148 -4.4896354,-4.298108 z"
     id="path833"
     inkscape:connector-curvature="0" />
  <path
     style="opacity:0.55;fill:#00a000;fill-opacity:1;stroke:#ffffff;stroke-width:0.00254237;stroke-miterlimit:4;stroke-dasharray:none;stroke-opacity:1"
     d=""
     id="path835"
     inkscape:connector-curvature="0" />
  <path
     style="opacity:0.55;fill:#00a000;fill-opacity:1;stroke:#ffffff;stroke-width:0.00254237;stroke-miterlimit:4;stroke-dasharray:none;stroke-opacity:1"
     d=""
     id="path837"
     inkscape:connector-curvature="0" />
  <path
     style="opacity:0.55;fill:#00a000;fill-opacity:1;stroke:#ffffff;stroke-width:0.00254237;stroke-miterlimit:4;stroke-dasharray:none;stroke-opacity:1"
     d="m 0.32960781,12.118572 c 0,-0.007 0.00572,-0.01625 0.0127119,-0.02057 0.006992,-0.0043 0.0127119,-0.0021 0.0127119,0.0049 0,0.007 -0.00572,0.01625 -0.0127119,0.02057 -0.006992,0.0043 -0.0127119,0.0021 -0.0127119,-0.0049 z"
     id="path839"
     inkscape:connector-curvature="0" />
  <path
     style="opacity:0.55;fill:#00a000;fill-opacity:1;stroke:#ffffff;stroke-width:0.00254237;stroke-miterlimit:4;stroke-dasharray:none;stroke-opacity:1"
     d="m 0.37797734,12.018554 c 0.15784246,-0.169208 0.24400335,-0.25349 0.24400335,-0.238684 0,0.0062 -0.0444204,0.05747 -0.0987121,0.113876 -0.0542916,0.05641 -0.13121432,0.138315 -0.17093934,0.182012 -0.039725,0.0437 -0.078887,0.07945 -0.0870265,0.07945 -0.00814,0 0.042564,-0.06149 0.11267458,-0.136653 z"
     id="path841"
     inkscape:connector-curvature="0" />
  <path
     style="opacity:0.55;fill:#00a000;fill-opacity:1;stroke:#ffffff;stroke-width:0.00078125;stroke-miterlimit:4;stroke-dasharray:none;stroke-opacity:1"
     d="M 3.7087878,15.862589 C 2.0472113,14.262314 1.1156624,13.344668 0.67583465,12.874902 0.37523106,12.553837 0.23221424,12.369974 0.22558929,12.296064 c -0.001175,-0.0131 -4.9278e-4,-0.01914 0.001881,-0.01665 0.002048,0.0021 0.0403737,0.06016 0.0851684,0.128906 0.0865438,0.132826 0.10302368,0.155359 0.15426992,0.210937 0.30272811,0.328321 1.76202259,1.768234 3.25775449,3.214487 0.1063476,0.10283 0.2091678,0.202545 0.2284892,0.22159 l 0.03513,0.03463 H 3.9665739 3.944866 Z"
     id="path843"
     inkscape:connector-curvature="0" />
  <path
     style="opacity:0.55;fill:#00a000;fill-opacity:1;stroke:#ffffff;stroke-width:0.00078125;stroke-miterlimit:4;stroke-dasharray:none;stroke-opacity:1"
     d=""
     id="path845"
     inkscape:connector-curvature="0" />
  <path
     style="opacity:0.55;fill:#00a000;fill-opacity:1;stroke:#ffffff;stroke-width:0.00078125;stroke-miterlimit:4;stroke-dasharray:none;stroke-opacity:1"
     d=""
     id="path847"
     inkscape:connector-curvature="0" />
  <path
     style="opacity:0.55;fill:#00a000;fill-opacity:1;stroke:#ffffff;stroke-width:0.00078125;stroke-miterlimit:4;stroke-dasharray:none;stroke-opacity:1"
     d=""
     id="path849"
     inkscape:connector-curvature="0" />
  <path
     style="opacity:0.55;fill:#00a000;fill-opacity:1;stroke:#ffffff;stroke-width:0.00078125;stroke-miterlimit:4;stroke-dasharray:none;stroke-opacity:1"
     d=""
     id="path851"
     inkscape:connector-curvature="0" />
  <path
     style="opacity:0.55;fill:#00a000;fill-opacity:1;stroke:#ffffff;stroke-width:0.00078125;stroke-miterlimit:4;stroke-dasharray:none;stroke-opacity:1"
     d="M 3.8750534,15.975532 C 3.8106003,15.912776 3.6708542,15.777104 3.5645065,15.67404 1.8717971,14.033587 0.53637697,12.711087 0.41401494,12.55403 0.40659094,12.54453 0.36184224,12.47794 0.31457264,12.406105 L 0.22862804,12.275504 1.0791845,11.426946 c 0.7572759,-0.755496 0.8518416,-0.848543 0.8622752,-0.848426 0.010503,1.19e-4 -0.076623,0.08823 -0.8395931,0.849047 l -0.8513119,0.848915 0.0814156,0.124511 c 0.0447786,0.06848 0.0906819,0.135937 0.1020073,0.149902 0.13792128,0.170064 1.3817804,1.402724 2.9957732,2.968802 0.1850967,0.179601 0.5653505,0.547524 0.5819128,0.563042 0.00759,0.0071 0.00751,0.0072 -0.00586,0.0071 -0.012424,-1.48e-4 -0.023412,-0.0098 -0.1307509,-0.114264 z"
     id="path853"
     inkscape:connector-curvature="0" />
  <path
     style="opacity:0.55;fill:#00a000;fill-opacity:1;stroke:#ffffff;stroke-width:0.00078125;stroke-miterlimit:4;stroke-dasharray:none;stroke-opacity:1"
     d="M 3.9625051,16.05596 C 3.9233285,16.019978 3.1151065,15.235415 2.6758347,14.806953 1.5368436,13.695992 0.62832828,12.791967 0.44871959,12.590845 0.4255627,12.564915 0.38560672,12.508851 0.32289814,12.414302 L 0.23100923,12.275756 1.000297,11.508597 c 0.797836,-0.795629 0.9179039,-0.913926 0.9226927,-0.909082 0.00156,0.0016 -0.37469,0.379494 -0.8361216,0.839803 l -0.83896654,0.836924 0.0650377,0.09924 c 0.0788282,0.120284 0.10348773,0.155882 0.10798366,0.155882 0.001881,0 0.002511,0.0015 0.0014,0.0033 -0.002621,0.0042 0.0408584,0.05384 0.13238733,0.151029 0.10401029,0.110439 0.97740515,0.982595 1.36139165,1.35946 0.599823,0.588699 1.2975549,1.268703 1.7851233,1.739767 0.3257721,0.314745 0.3121404,0.301163 0.3022675,0.301163 -0.00481,0 -0.02181,-0.01248 -0.040988,-0.03009 z"
     id="path855"
     inkscape:connector-curvature="0" />
  <path
     style="opacity:0.55;fill:#00a000;fill-opacity:1;stroke:#ffffff;stroke-width:0.00078125;stroke-miterlimit:4;stroke-dasharray:none;stroke-opacity:1"
     d="M 3.9584532,16.048217 C 3.871776,15.9677 2.8985136,15.022328 2.3828873,14.517801 1.6418444,13.792709 0.74853278,12.904881 0.54925704,12.695426 0.44055856,12.581176 0.41552116,12.549341 0.31027887,12.391571 L 0.23378559,12.276899 0.88059137,11.631758 C 1.7630372,10.751583 1.8490916,10.666209 1.8514541,10.668572 c 0.00113,0.0011 -0.3593982,0.363135 -0.8011727,0.804456 l -0.8032262,0.802403 0.009004,0.01566 c 0.008855,0.0154 0.14142984,0.21468 0.16437894,0.247084 0.0170629,0.02409 0.075881,0.08865 0.16996997,0.186546 0.12536936,0.130447 1.13691279,1.138341 1.46433269,1.45905 0.6254561,0.612637 1.0688825,1.044669 1.5312558,1.491911 0.3674651,0.355439 0.419289,0.40638 0.4134722,0.406426 -0.00247,0 -0.020927,-0.01523 -0.041016,-0.03389 z"
     id="path857"
     inkscape:connector-curvature="0" />
  <path
     style="opacity:0.55;fill:#00a000;fill-opacity:1;stroke:#ffffff;stroke-width:0.00078125;stroke-miterlimit:4;stroke-dasharray:none;stroke-opacity:1"
     d=""
     id="path859"
     inkscape:connector-curvature="0" />
  <path
     style="opacity:0.55;fill:#00a000;fill-opacity:1;stroke:#ffffff;stroke-width:0.00078125;stroke-miterlimit:4;stroke-dasharray:none;stroke-opacity:1"
     d=""
     id="path861"
     inkscape:connector-curvature="0" />
  <path
     style="opacity:0.55;fill:#00a000;fill-opacity:1;stroke:#ffffff;stroke-width:0.00078125;stroke-miterlimit:4;stroke-dasharray:none;stroke-opacity:1"
     d="m 0.22856903,12.267751 c 0,-0.0047 0.0471084,-0.06346 0.0924795,-0.115293 0.11236542,-0.128383 0.33946148,-0.36928 0.59280406,-0.628832 0.20549561,-0.210532 0.93826171,-0.941839 0.94562181,-0.943738 0.00432,-0.0011 0.020243,-0.0015 0.03538,-8.62e-4 l 0.027521,0.0012 -0.8469033,0.845201 c -0.46579689,0.46486 -0.8469034,0.843922 -0.8469034,0.842358 z"
     id="path863"
     inkscape:connector-curvature="0" />
  <path
     style="opacity:0.55;fill:#00a000;fill-opacity:1;stroke:#ffffff;stroke-width:0.00078125;stroke-miterlimit:4;stroke-dasharray:none;stroke-opacity:1"
     d="M 3.6406784,15.825485 C 2.3675236,14.596433 1.9359066,14.175831 1.4088522,13.650616 0.71241434,12.95661 0.40125495,12.623384 0.27070303,12.431754 c -0.0318666,-0.04678 -0.0603544,-0.09853 -0.0585521,-0.106383 6.2457e-4,-0.0027 -2.5984e-4,-0.0049 -0.001965,-0.0049 -0.004049,4e-6 -0.00206,-0.05178 0.002444,-0.06363 0.005031,-0.01323 0.0480708,-0.06708 0.10754732,-0.134554 0.003304,-0.0037 0.005295,-0.0031 0.008955,0.0027 0.004156,0.0067 0.001003,0.01179 -0.0269444,0.04388 -0.0174079,0.01999 -0.043026,0.05129 -0.0569292,0.06955 -0.0252612,0.03318 -0.0252772,0.03322 -0.0233821,0.05484 0.007945,0.09063 0.18865389,0.311938 0.63135779,0.773204 0.26387246,0.274936 1.03747376,1.040726 1.75033576,1.732663 0.3412856,0.331267 1.2565078,1.214594 1.3299696,1.28362 0.00759,0.0071 0.00751,0.0072 -0.00586,0.007 -0.012539,-2.34e-4 -0.034215,-0.02019 -0.2870009,-0.264219 z"
     id="path865"
     inkscape:connector-curvature="0" />
  <path
     style="opacity:0.55;fill:#00a000;fill-opacity:1;stroke:#ffffff;stroke-width:0.00078125;stroke-miterlimit:4;stroke-dasharray:none;stroke-opacity:1"
     d="M 3.9058639,16.074012 C 3.8831652,16.056015 3.79406,15.970615 3.2949753,15.488528 2.2057458,14.436396 1.7221108,13.962965 1.1992722,13.437041 0.59279707,12.826988 0.35006859,12.560017 0.24630648,12.388901 c -0.0322179,-0.05313 -0.0389315,-0.07317 -0.0354412,-0.105757 0.003197,-0.02986 0.007279,-0.03642 0.0680129,-0.109345 0.0314031,-0.03771 0.0453826,-0.05186 0.0476281,-0.04823 0.00362,0.0059 0.005368,0.0033 -0.0395494,0.05814 -0.0662718,0.08093 -0.0668597,0.08192 -0.065037,0.109247 0.006192,0.09285 0.19840348,0.327509 0.65896002,0.804497 0.1204876,0.124786 0.8427202,0.846021 0.8471915,0.846021 0.00174,0 0.021395,0.01909 0.043672,0.04242 0.1163015,0.121813 1.0617773,1.041309 1.8963238,1.844218 0.1138425,0.109526 0.22017,0.211891 0.2362833,0.227477 0.029675,0.0287 0.030674,0.03954 0.00151,0.01642 z"
     id="path867"
     inkscape:connector-curvature="0" />
  <path
     style="opacity:0.55;fill:#00a000;fill-opacity:1;stroke:#ffffff;stroke-width:0.00078125;stroke-miterlimit:4;stroke-dasharray:none;stroke-opacity:1"
     d=""
     id="path869"
     inkscape:connector-curvature="0" />
  <path
     style="opacity:0.55;fill:#00a000;fill-opacity:1;stroke:#ffffff;stroke-width:0.00078125;stroke-miterlimit:4;stroke-dasharray:none;stroke-opacity:1"
     d=""
     id="path871"
     inkscape:connector-curvature="0" />
  <path
     style="opacity:0.55;fill:#00a000;fill-opacity:1;stroke:#ffffff;stroke-width:0.00078125;stroke-miterlimit:4;stroke-dasharray:none;stroke-opacity:1"
     d="m 0.38807976,12.503113 c -0.0157582,-0.02233 -0.0567299,-0.08229 -0.0910482,-0.133225 l -0.0623969,-0.09261 0.25574506,-0.255768 c 0.14065977,-0.140672 0.25750286,-0.255767 0.2596513,-0.255767 0.002148,0 -0.11088258,0.114799 -0.25118006,0.255108 l -0.25508634,0.255109 0.0880043,0.132362 c 0.0484024,0.0728 0.0873198,0.133047 0.0864833,0.133884 -8.366e-4,8.36e-4 -0.0144142,-0.01675 -0.0301725,-0.03909 z"
     id="path873"
     inkscape:connector-curvature="0" />
  <path
     style="opacity:0.55;fill:#00a000;fill-opacity:1;stroke:#ffffff;stroke-width:0.00078125;stroke-miterlimit:4;stroke-dasharray:none;stroke-opacity:1"
     d="m 0.27546968,12.141981 c 1.1467e-4,-0.01429 0.32335269,-0.354947 0.33024963,-0.34805 0.002656,0.0027 -0.0394606,0.05056 -0.1055418,0.120046 -0.0237011,0.02492 -0.0788039,0.08347 -0.12245079,0.130095 -0.0731361,0.07813 -0.10232263,0.10608 -0.10225704,0.09791 z"
     id="path875"
     inkscape:connector-curvature="0" />
  <path
     style="opacity:0.55;fill:#00a000;fill-opacity:1;stroke:#ffffff;stroke-width:0.00078125;stroke-miterlimit:4;stroke-dasharray:none;stroke-opacity:1"
     d="m 0.35328553,12.09777 c -0.00533,-0.0052 2.9811e-4,-0.01271 0.0528229,-0.07013 0.2240843,-0.244968 0.55321984,-0.583172 1.04844717,-1.077334 0.3340666,-0.333348 0.3741308,-0.372068 0.3849662,-0.372051 0.011006,1.8e-5 -0.020231,0.03226 -0.3472809,0.358463 -0.50730966,0.505994 -0.82167592,0.8287 -1.06844784,1.096791 -0.0576168,0.06259 -0.0651817,0.06949 -0.0705075,0.06426 z"
     id="path877"
     inkscape:connector-curvature="0" />
  <path
     style="opacity:0.55;fill:#00a000;fill-opacity:1;stroke:#ffffff;stroke-width:0.00078125;stroke-miterlimit:4;stroke-dasharray:none;stroke-opacity:1"
     d="m 0.25200653,12.24099 c 0,-0.0081 0.0757314,-0.09523 0.19740037,-0.227204 0.22712431,-0.246357 0.51755572,-0.544112 1.0068368,-1.032227 l 0.4003684,-0.399414 0.030705,4.8e-5 0.030705,4.8e-5 -0.4648438,0.463687 c -0.2556641,0.255029 -0.63051758,0.628969 -0.83300781,0.830979 -0.20249024,0.20201 -0.36816406,0.365847 -0.36816396,0.364083 z"
     id="path879"
     inkscape:connector-curvature="0" />
  <path
     style="opacity:0.55;fill:#00a000;fill-opacity:1;stroke:#ffffff;stroke-width:0.00078125;stroke-miterlimit:4;stroke-dasharray:none;stroke-opacity:1"
     d=""
     id="path881"
     inkscape:connector-curvature="0" />
  <path
     style="opacity:0.55;fill:#00a000;fill-opacity:1;stroke:#ffffff;stroke-width:0.00078125;stroke-miterlimit:4;stroke-dasharray:none;stroke-opacity:1"
     d="m 0.33403778,12.115954 c 0,-0.007 0.0142476,-0.01967 0.0170274,-0.01517 0.002581,0.0042 -0.008034,0.02042 -0.0133427,0.02042 -0.002027,0 -0.003685,-0.0024 -0.003685,-0.0053 z"
     id="path883"
     inkscape:connector-curvature="0" />
  <path
     style="opacity:0.55;fill:#00a000;fill-opacity:1;stroke:#ffffff;stroke-width:0.00078125;stroke-miterlimit:4;stroke-dasharray:none;stroke-opacity:1"
     d="m 0.27943446,12.208603 c 1.6733e-4,-0.0068 0.19045295,-0.216089 0.32971237,-0.362674 0.18016829,-0.189645 0.32464153,-0.336507 0.77537817,-0.788198 l 0.4706834,-0.47168 h 0.027495 0.027495 l -0.4999943,0.500247 c -0.58839144,0.588689 -1.1308884,1.127125 -1.13076964,1.122305 z"
     id="path885"
     inkscape:connector-curvature="0" />
  <path
     style="opacity:0.55;fill:#00a000;fill-opacity:1;stroke:#ffffff;stroke-width:0.00078125;stroke-miterlimit:4;stroke-dasharray:none;stroke-opacity:1"
     d=""
     id="path887"
     inkscape:connector-curvature="0" />
  <path
     style="opacity:0.55;fill:#00a000;fill-opacity:1;stroke:#ffffff;stroke-width:0.00078125;stroke-miterlimit:4;stroke-dasharray:none;stroke-opacity:1"
     d="m 0.26777201,12.174725 c -3.3029e-4,-0.0073 0.0117,-0.02487 0.0225558,-0.03286 0.0102354,-0.0075 0.012044,-0.0078 0.0141205,-0.0024 0.002307,0.006 -0.007209,0.01654 -0.0151856,0.01681 -0.002068,6.8e-5 -0.007717,0.005 -0.0125548,0.01087 -0.004837,0.0059 -0.008859,0.0093 -0.008936,0.0076 z"
     id="path889"
     inkscape:connector-curvature="0" />
  <path
     style="opacity:0.55;fill:#00a000;fill-opacity:1;stroke:#ffffff;stroke-width:0.00078125;stroke-miterlimit:4;stroke-dasharray:none;stroke-opacity:1"
     d=""
     id="path891"
     inkscape:connector-curvature="0" />
  <path
     style="opacity:0.55;fill:#00a000;fill-opacity:1;stroke:#ffffff;stroke-width:0.00078125;stroke-miterlimit:4;stroke-dasharray:none;stroke-opacity:1"
     d=""
     id="path893"
     inkscape:connector-curvature="0" />
  <path
     style="opacity:0.55;fill:#00a000;fill-opacity:1;stroke:#ffffff;stroke-width:0.00078125;stroke-miterlimit:4;stroke-dasharray:none;stroke-opacity:1"
     d=""
     id="path895"
     inkscape:connector-curvature="0" />
  <path
     style="opacity:0.55;fill:#00a000;fill-opacity:1;stroke:#ffffff;stroke-width:0.00078125;stroke-miterlimit:4;stroke-dasharray:none;stroke-opacity:1"
     d=""
     id="path897"
     inkscape:connector-curvature="0" />
  <path
     style="opacity:0.55;fill:#00a000;fill-opacity:1;stroke:#ffffff;stroke-width:0.00078125;stroke-miterlimit:4;stroke-dasharray:none;stroke-opacity:1"
     d=""
     id="path899"
     inkscape:connector-curvature="0" />
  <path
     style="opacity:0.55;fill:#00a000;fill-opacity:1;stroke:#ffffff;stroke-width:0.00078125;stroke-miterlimit:4;stroke-dasharray:none;stroke-opacity:1"
     d="m 0.25213093,12.140609 c 0.0392445,-0.04089 0.0728492,-0.07527 0.0746771,-0.0764 0.008545,-0.0053 0.001364,0.0054 -0.0195057,0.02913 -0.0125561,0.01425 -0.0280824,0.03324 -0.0345029,0.0422 -0.006421,0.009 -0.0247119,0.02671 -0.0406474,0.03944 -0.0159355,0.01274 -0.0323223,0.02694 -0.036415,0.03157 -0.004093,0.0046 -0.009133,0.0084 -0.0112005,0.0084 -0.002068,0 0.02835,-0.03346 0.0675944,-0.07435 z"
     id="path905"
     inkscape:connector-curvature="0" />
  <path
     style="opacity:0.55;fill:#00a000;fill-opacity:1;stroke:#ffffff;stroke-width:0.00078125;stroke-miterlimit:4;stroke-dasharray:none;stroke-opacity:1"
     d="m 0.62310028,11.784052 c 0,-0.0076 -0.008049,-0.0087 -0.0147787,-0.002 -0.002542,0.0025 -0.005456,0.0038 -0.006475,0.0028 -0.001019,-0.001 0.16439547,-0.172811 0.36758712,-0.381762 0.2031916,-0.20895 0.3703586,-0.37899 0.3714821,-0.377867 0.00112,0.0011 -0.014027,0.01885 -0.033668,0.0394 -0.034317,0.0359 -0.043866,0.04959 -0.028875,0.04142 0.00376,-0.0021 0.044913,-0.04078 0.091451,-0.08607 0.046538,-0.04529 0.08595,-0.08235 0.087581,-0.08235 0.00163,0 -0.095332,0.09889 -0.2154745,0.219763 -0.2066679,0.20792 -0.41385823,0.419479 -0.555395,0.567105 -0.0360079,0.03756 -0.0634358,0.06331 -0.0634358,0.05957 z"
     id="path907"
     inkscape:connector-curvature="0" />
  <path
     style="opacity:0.55;fill:#00a000;fill-opacity:1;stroke:#ffffff;stroke-width:0.0015625;stroke-miterlimit:4;stroke-dasharray:none;stroke-opacity:1"
     d="m 14.757238,9.5814782 c 0,-0.00775 2.953163,-3.0122924 4.034803,-4.1050026 0.726476,-0.7339118 2.237875,-2.2478919 2.303631,-2.307565 0.07974,-0.07236 0.06025,-0.076568 0.190714,0.041191 0.281395,0.2540011 0.801638,0.7635844 1.81429,1.7771147 l 0.800469,0.8011639 -0.01898,0.020208 c -0.01482,0.015772 -0.01989,0.0177 -0.02313,0.00878 -0.0023,-0.00628 -0.610141,-0.615421 -1.350807,-1.3536374 L 21.161562,3.1215215 21.031724,3.2540767 c -0.278606,0.2844392 -6.268071,6.3317739 -6.271182,6.3317739 -0.0018,0 -0.0033,-0.00197 -0.0033,-0.00437 z"
     id="path909"
     inkscape:connector-curvature="0" />
  <path
     style="opacity:0.55;fill:#00a000;fill-opacity:1;stroke:#ffffff;stroke-width:0.0015625;stroke-miterlimit:4;stroke-dasharray:none;stroke-opacity:1"
     d="m 15.858891,8.4649388 c -5e-5,-0.0042 0.09592,-0.1043921 0.213266,-0.2226563 0.117346,-0.1182641 0.534756,-0.5419788 0.927578,-0.9415882 1.653399,-1.6819662 4.05402,-4.0966486 4.045454,-4.0691501 -0.0025,0.00797 -0.617222,0.6306992 -1.803514,1.8269626 -0.213053,0.2148438 -0.56652,0.5716797 -0.785481,0.7929688 -0.553224,0.559104 -1.68477,1.7011944 -2.318243,2.3398437 -0.153433,0.1546875 -0.27901,0.2778163 -0.27906,0.2736195 z"
     id="path911"
     inkscape:connector-curvature="0" />
  <path
     style="opacity:0.55;fill:#00a000;fill-opacity:1;stroke:#ffffff;stroke-width:0.0015625;stroke-miterlimit:4;stroke-dasharray:none;stroke-opacity:1"
     d=""
     id="path913"
     inkscape:connector-curvature="0" />
  <path
     style="opacity:0.55;fill:#00a000;fill-opacity:1;stroke:#ffffff;stroke-width:0.00078125;stroke-miterlimit:4;stroke-dasharray:none;stroke-opacity:1"
     d=""
     id="path915"
     inkscape:connector-curvature="0" />
  <path
     style="opacity:0.55;fill:#00a000;fill-opacity:1;stroke:#ffffff;stroke-width:0.00078125;stroke-miterlimit:4;stroke-dasharray:none;stroke-opacity:1"
     d=""
     id="path917"
     inkscape:connector-curvature="0" />
  <path
     style="opacity:0.55;fill:#00a000;fill-opacity:1;stroke:#ffffff;stroke-width:0.00078125;stroke-miterlimit:4;stroke-dasharray:none;stroke-opacity:1"
     d=""
     id="path919"
     inkscape:connector-curvature="0" />
  <path
     style="opacity:0.55;fill:#00a000;fill-opacity:1;stroke:#ffffff;stroke-width:0.00078125;stroke-miterlimit:4;stroke-dasharray:none;stroke-opacity:1"
     d=""
     id="path921"
     inkscape:connector-curvature="0" />
  <path
     style="opacity:0.55;fill:#00a000;fill-opacity:1;stroke:#ffffff;stroke-width:0.00078125;stroke-miterlimit:4;stroke-dasharray:none;stroke-opacity:1"
     d="m 21.365965,3.2865254 c -0.0028,-0.00333 -0.0041,-0.00693 -0.0031,-0.008 0.0011,-0.00107 0.0042,7.686e-4 0.007,0.0041 0.0028,0.00333 0.0041,0.00693 0.0031,0.008 -0.0011,0.00107 -0.0042,-7.685e-4 -0.007,-0.00409 z"
     id="path923"
     inkscape:connector-curvature="0" />
  <path
     style="opacity:0.55;fill:#00a000;fill-opacity:1;stroke:#ffffff;stroke-width:0.00078125;stroke-miterlimit:4;stroke-dasharray:none;stroke-opacity:1"
     d="M 8.6464795,15.128847 C 8.404081,14.909811 8.0426821,14.576064 8.0451853,14.573561 c 9.003e-4,-9.01e-4 0.00486,0.0013 0.0088,0.0048 0.00817,0.0074 0.016318,0.0085 0.016318,0.0022 0,-0.0023 -0.010825,-0.01552 -0.024057,-0.0293 -0.013231,-0.01378 -0.022828,-0.02505 -0.021326,-0.02505 0.0015,0 0.1569073,0.14701 0.3453457,0.326688 0.4014266,0.382766 0.3787075,0.360844 0.3738139,0.360691 -0.00212,-6.6e-5 -0.046042,-0.03824 -0.097605,-0.08483 z"
     id="path925"
     inkscape:connector-curvature="0" />
  <path
     style="opacity:0.55;fill:#00a000;fill-opacity:1;stroke:#ffffff;stroke-width:0.00078125;stroke-miterlimit:4;stroke-dasharray:none;stroke-opacity:1"
     d=""
     id="path927"
     inkscape:connector-curvature="0" />
  <path
     style="opacity:0.55;fill:#00a000;fill-opacity:1;stroke:#ffffff;stroke-width:0.00110485;stroke-miterlimit:4;stroke-dasharray:none;stroke-opacity:1"
     d="m 19.319807,10.482288 c 0.07178,-0.07216 1.140316,-1.1576655 2.374519,-2.4122333 L 23.938331,5.7890226 23.005604,4.8574189 C 22.027388,3.8803812 21.910603,3.7648677 21.628132,3.4949523 21.344668,3.2240859 21.204692,3.097606 21.171808,3.0826229 c -0.01132,-0.00516 -0.01667,-0.00261 -0.04455,0.021189 -0.043,0.036721 -0.812251,0.7962815 -0.945446,0.933539 -0.0587,0.060488 -0.276366,0.2802647 -0.483706,0.4883916 -0.812291,0.8153758 -2.458942,2.4857363 -4.259881,4.321219 l -0.718155,0.7319301 -0.0017,-0.025044 -0.0017,-0.025044 0.07142,-0.072232 c 0.03928,-0.039728 1.418272,-1.4444617 3.06442,-3.1216306 1.646147,-1.6771689 3.063272,-3.1204002 3.149166,-3.2071807 l 0.15617,-0.1577827 1.417692,1.4045705 c 0.77973,0.7725137 1.417589,1.4059939 1.417465,1.4077339 -1.27e-4,0.00174 -1.068533,1.0894734 -2.374239,2.4171855 L 19.244712,10.61349 h -0.02771 -0.02771 z"
     id="path929"
     inkscape:connector-curvature="0" />
  <path
     style="opacity:0.55;fill:#00a000;fill-opacity:1;stroke:#ffffff;stroke-width:0.00110485;stroke-miterlimit:4;stroke-dasharray:none;stroke-opacity:1"
     d=""
     id="path931"
     inkscape:connector-curvature="0" />
  <path
     style="opacity:0.55;fill:#00a000;fill-opacity:1;stroke:#ffffff;stroke-width:0.00110485;stroke-miterlimit:4;stroke-dasharray:none;stroke-opacity:1"
     d=""
     id="path933"
     inkscape:connector-curvature="0" />
  <path
     style="opacity:0.55;fill:#00a000;fill-opacity:1;stroke:#ffffff;stroke-width:0.00078125;stroke-miterlimit:4;stroke-dasharray:none;stroke-opacity:1"
     d="m 19.979902,9.8164854 c 0.0051,-0.00627 0.388045,-0.39615 0.851046,-0.866409 0.463,-0.4702586 1.321502,-1.3428086 1.907782,-1.939 0.58628,-0.5961914 1.09687,-1.1151588 1.134644,-1.1532608 l 0.06868,-0.069276 -0.737879,-0.735411 -0.73788,-0.7354111 0.02263,-0.00119 0.02263,-0.00119 0.07469,0.073451 c 0.04108,0.040398 0.374025,0.3703635 0.739875,0.7332565 l 0.665181,0.6598053 -0.06369,0.064804 C 23.892581,5.8822963 23.721538,6.0564779 23.547515,6.233724 23.07056,6.7195136 21.525704,8.2912346 20.72554,9.1047732 l -0.708899,0.7207477 -0.02298,0.00117 -0.02298,0.00117 z"
     id="path935"
     inkscape:connector-curvature="0" />
  <path
     style="opacity:0.55;fill:#00a000;fill-opacity:1;stroke:#ffffff;stroke-width:0.00078125;stroke-miterlimit:4;stroke-dasharray:none;stroke-opacity:1"
     d="M 20.001281,9.7603272 C 20.314747,9.4432498 23.90353,5.7939383 23.904655,5.791119 23.90546,5.7891007 23.574992,5.4562315 23.17028,5.0514095 22.485904,4.3668465 22.435417,4.3154518 22.448395,4.3165434 c 0.01287,0.00108 0.07106,0.058429 0.748395,0.7375017 l 0.73444,0.7363282 -1.985361,2.0175781 c -1.778291,1.8071472 -1.986721,2.0177035 -1.998395,2.018782 -0.01228,0.00113 -0.0092,-0.00269 0.05381,-0.066406 z"
     id="path937"
     inkscape:connector-curvature="0" />
  <path
     style="opacity:0.55;fill:#00a000;fill-opacity:1;stroke:#ffffff;stroke-width:0.00078125;stroke-miterlimit:4;stroke-dasharray:none;stroke-opacity:1"
     d=""
     id="path939"
     inkscape:connector-curvature="0" />
  <path
     style="opacity:0.55;fill:#00a000;fill-opacity:1;stroke:#ffffff;stroke-width:0.00078125;stroke-miterlimit:4;stroke-dasharray:none;stroke-opacity:1"
     d=""
     id="path941"
     inkscape:connector-curvature="0" />
  <path
     style="opacity:0.55;fill:#00a000;fill-opacity:1;stroke:#ffffff;stroke-width:0.00078125;stroke-miterlimit:4;stroke-dasharray:none;stroke-opacity:1"
     d="m 19.893673,9.821083 c 0.0047,-0.00591 3.675424,-3.7389737 3.872361,-3.9381632 l 0.06684,-0.06761 -0.751953,-0.7495917 C 22.406337,4.3932483 22.330175,4.316108 22.340658,4.3159453 c 0.01035,-1.606e-4 0.04637,0.034402 0.314453,0.3017248 0.166522,0.1660485 0.504477,0.5027576 0.75101,0.7482426 0.246533,0.245485 0.448242,0.447605 0.448242,0.4491556 0,0.00155 -0.887098,0.9045387 -1.971329,2.0066402 -1.661237,1.6886183 -1.973188,2.0040222 -1.98315,2.0050995 -0.0109,0.00118 -0.01139,7.344e-4 -0.0062,-0.00572 z"
     id="path943"
     inkscape:connector-curvature="0" />
  <path
     style="opacity:0.55;fill:#00a000;fill-opacity:1;stroke:#ffffff;stroke-width:0.00078125;stroke-miterlimit:4;stroke-dasharray:none;stroke-opacity:1"
     d="m 19.997076,9.7438326 c 0.343946,-0.3545172 3.860251,-3.92278 3.864176,-3.921274 0.0033,0.00126 5e-5,0.00734 -0.0096,0.018059 -0.008,0.00889 -0.269638,0.275439 -0.581426,0.5923336 -0.311789,0.3168945 -1.190397,1.2098633 -1.952463,1.984375 -0.845691,0.8595023 -1.38889,1.4087324 -1.394083,1.4095617 -0.0056,8.996e-4 0.01917,-0.027166 0.07339,-0.083056 z"
     id="path945"
     inkscape:connector-curvature="0" />
  <path
     style="opacity:0.55;fill:#00a000;fill-opacity:1;stroke:#ffffff;stroke-width:0.00078125;stroke-miterlimit:4;stroke-dasharray:none;stroke-opacity:1"
     d=""
     id="path947"
     inkscape:connector-curvature="0" />
  <path
     style="opacity:0.55;fill:#00a000;fill-opacity:1;stroke:#ffffff;stroke-width:0.00078125;stroke-miterlimit:4;stroke-dasharray:none;stroke-opacity:1"
     d="m 19.959868,9.7865978 c -2e-5,-0.00208 0.03204,-0.036357 0.07125,-0.076178 0.03921,-0.039822 0.117013,-0.118982 0.172899,-0.1759121 0.345732,-0.3521951 0.989823,-1.0071164 1.158252,-1.1777279 0.06787,-0.06875 0.237595,-0.2410156 0.377163,-0.3828125 0.468047,-0.4755182 1.079918,-1.0963687 1.220371,-1.2382812 0.07655,-0.077344 0.274819,-0.2779231 0.440601,-0.4457319 0.304771,-0.3084965 0.315891,-0.3195637 0.31299,-0.3115142 -0.0014,0.00395 -0.138233,0.1436412 -0.548425,0.5599804 -0.11482,0.1165404 -0.238761,0.2424584 -0.478578,0.4862101 -0.06553,0.066603 -0.172784,0.175614 -0.238348,0.2422475 -0.06556,0.066634 -0.173669,0.1765088 -0.240234,0.2441673 -0.220331,0.2239511 -0.36569,0.371685 -0.480463,0.4883126 -0.06237,0.063379 -0.167853,0.1705817 -0.234405,0.2382285 -0.06655,0.067647 -0.177281,0.1801468 -0.246066,0.25 -0.06878,0.069853 -0.182164,0.1849941 -0.251953,0.2558685 -0.675566,0.6860703 -1.035008,1.0483208 -1.035057,1.0431432 z"
     id="path949"
     inkscape:connector-curvature="0" />
  <path
     style="opacity:0.55;fill:#00a000;fill-opacity:1;stroke:#ffffff;stroke-width:0.00078125;stroke-miterlimit:4;stroke-dasharray:none;stroke-opacity:1"
     d="m 21.678582,8.0393734 c 0,-0.00162 0.05556,-0.058314 0.123474,-0.1259765 0.06791,-0.067663 0.122842,-0.120858 0.12207,-0.1182112 -0.0012,0.0042 -0.241489,0.2471407 -0.24442,0.2471407 -6.18e-4,0 -0.0011,-0.00133 -0.0011,-0.00295 z"
     id="path951"
     inkscape:connector-curvature="0" />
  <path
     style="opacity:0.55;fill:#00a000;fill-opacity:1;stroke:#ffffff;stroke-width:0.00078125;stroke-miterlimit:4;stroke-dasharray:none;stroke-opacity:1"
     d=""
     id="path953"
     inkscape:connector-curvature="0" />
  <path
     style="opacity:0.55;fill:#00a000;fill-opacity:1;stroke:#ffffff;stroke-width:0.00078125;stroke-miterlimit:4;stroke-dasharray:none;stroke-opacity:1"
     d=""
     id="path955"
     inkscape:connector-curvature="0" />
  <path
     style="opacity:0.55;fill:#00a000;fill-opacity:1;stroke:#ffffff;stroke-width:0.00078125;stroke-miterlimit:4;stroke-dasharray:none;stroke-opacity:1"
     d=""
     id="path957"
     inkscape:connector-curvature="0" />
  <path
     style="opacity:0.55;fill:#00a000;fill-opacity:1;stroke:#ffffff;stroke-width:0.00078125;stroke-miterlimit:4;stroke-dasharray:none;stroke-opacity:1"
     d=""
     id="path959"
     inkscape:connector-curvature="0" />
  <path
     style="opacity:0.55;fill:#00a000;fill-opacity:1;stroke:#ffffff;stroke-width:0.00078125;stroke-miterlimit:4;stroke-dasharray:none;stroke-opacity:1"
     d="m 20.001251,9.7132248 c 0.06021,-0.060693 0.208741,-0.2114258 0.330078,-0.3349609 0.121337,-0.1235352 0.529914,-0.5392578 0.907949,-0.9238281 1.65762,-1.6862796 2.347511,-2.3875527 2.467744,-2.5084594 L 23.835854,5.8164232 23.091101,5.0729295 C 22.681487,4.6640079 22.346394,4.3270646 22.34645,4.3241664 c 5.5e-5,-0.0029 0.01109,0.00413 0.02452,0.015624 0.03466,0.02966 1.479874,1.4729033 1.478595,1.4765766 -5.81e-4,0.00167 -0.02572,0.028143 -0.05586,0.058832 -0.03014,0.030689 -0.14972,0.1524783 -0.265726,0.2706424 -0.699691,0.7127072 -2.247448,2.2865727 -2.810021,2.8574219 -0.425689,0.4319515 -0.814078,0.8203125 -0.820371,0.8203125 -0.0032,0 0.04347,-0.049658 0.103672,-0.1103516 z"
     id="path961"
     inkscape:connector-curvature="0" />
  <path
     style="opacity:0.55;fill:#00a000;fill-opacity:1;stroke:#ffffff;stroke-width:0.00078125;stroke-miterlimit:4;stroke-dasharray:none;stroke-opacity:1"
     d="m 20.026361,9.6928397 c -6.8e-5,-0.00208 0.06108,-0.065363 0.135895,-0.140625 0.07481,-0.075263 0.388139,-0.3934692 0.696289,-0.7071254 1.62797,-1.6570642 2.822698,-2.8711282 2.932996,-2.9804647 L 23.838791,5.8177826 23.132873,5.111856 C 22.744622,4.723596 22.428168,4.40472 22.429645,4.4032422 c 0.0015,-0.00148 0.321308,0.3156227 0.710733,0.7046678 l 0.708046,0.7073548 -0.03316,0.034334 c -0.01824,0.018884 -0.42955,0.4377872 -0.914023,0.9308963 -2.011102,2.0469531 -2.874575,2.9216793 -2.874877,2.9123442 z"
     id="path963"
     inkscape:connector-curvature="0" />
  <path
     style="opacity:0.55;fill:#00a000;fill-opacity:1;stroke:#ffffff;stroke-width:0.00078125;stroke-miterlimit:4;stroke-dasharray:none;stroke-opacity:1"
     d="m 19.980014,9.8200315 c 7.16e-4,-0.00195 0.091,-0.094674 0.200633,-0.2060547 0.109631,-0.1113805 1.001226,-1.0175961 1.98132,-2.0138125 L 23.943957,5.7888617 23.308283,5.1548518 C 22.958662,4.8061464 22.627421,4.4761139 22.572192,4.4214462 c -0.05523,-0.054668 -0.100028,-0.099752 -0.09955,-0.100188 4.76e-4,-4.357e-4 0.009,-0.00141 0.019,-0.00217 0.01807,-0.00137 0.01826,-0.00126 0.05469,0.033434 0.0201,0.019145 0.135892,0.1334024 0.257307,0.2539063 0.121415,0.1205038 0.321809,0.3192932 0.44532,0.4417542 0.123511,0.1224609 0.340268,0.3376209 0.481682,0.4781333 l 0.257117,0.2554772 -0.02861,0.029651 c -0.01573,0.016308 -0.07524,0.077125 -0.13223,0.1351479 -0.05699,0.058023 -0.151913,0.1547042 -0.210937,0.214847 -0.05902,0.060143 -0.160039,0.1629748 -0.224476,0.2285156 -0.06444,0.065541 -0.164675,0.1675049 -0.222751,0.2265869 -0.05808,0.059082 -0.157405,0.160128 -0.220732,0.2245466 -0.06333,0.064419 -0.16527,0.1681296 -0.226541,0.2304688 -0.06127,0.062339 -0.162345,0.1651725 -0.224609,0.2285185 -0.06226,0.063346 -0.163339,0.166178 -0.22461,0.2285156 -0.06127,0.062338 -0.162345,0.1651697 -0.224609,0.2285156 -0.06226,0.063346 -0.163338,0.1661781 -0.224609,0.2285157 -0.06127,0.062338 -0.162346,0.1651696 -0.22461,0.2285156 -0.06226,0.063346 -0.163338,0.1661778 -0.224609,0.2285157 -0.06127,0.062337 -0.162345,0.1651688 -0.224609,0.2285133 -0.06227,0.063345 -0.163306,0.16615 -0.224536,0.2284563 -0.228316,0.2323261 -0.529178,0.5382144 -0.691631,0.7031855 -0.0635,0.064487 -0.138085,0.1405395 -0.165738,0.1690063 l -0.05028,0.051758 h -0.01916 c -0.01054,0 -0.01857,-0.0016 -0.01786,-0.00354 z"
     id="path965"
     inkscape:connector-curvature="0" />
  <path
     style="opacity:0.55;fill:#00a000;fill-opacity:1;stroke:#ffffff;stroke-width:0.00078125;stroke-miterlimit:4;stroke-dasharray:none;stroke-opacity:1"
     d=""
     id="path967"
     inkscape:connector-curvature="0" />
  <path
     style="opacity:0.55;fill:#00a000;fill-opacity:1;stroke:#ffffff;stroke-width:0.00078125;stroke-miterlimit:4;stroke-dasharray:none;stroke-opacity:1"
     d=""
     id="path969"
     inkscape:connector-curvature="0" />
  <path
     style="opacity:0.55;fill:#00a000;fill-opacity:1;stroke:#ffffff;stroke-width:0.00078125;stroke-miterlimit:4;stroke-dasharray:none;stroke-opacity:1"
     d="m 19.991442,9.7737717 c 0.143485,-0.1456164 0.882867,-0.8971434 1.499778,-1.5244141 2.403365,-2.4437245 2.431092,-2.4720088 2.411354,-2.4598098 -0.002,0.00122 -0.0058,-0.00272 -0.0084,-0.00874 -0.0027,-0.00603 -0.327357,-0.3345918 -0.721532,-0.7301434 -0.394175,-0.3955516 -0.716681,-0.7211361 -0.716681,-0.7235211 0,-0.00239 0.01096,0.00507 0.02436,0.016558 0.0134,0.011492 0.344691,0.3416951 0.736209,0.7337849 l 0.711851,0.7128907 -0.06376,0.064453 c -0.03507,0.035449 -0.443251,0.4502929 -0.907069,0.921875 -2.610182,2.6538707 -2.998663,3.046875 -3.011807,3.046875 -0.0018,0 0.01874,-0.022412 0.04574,-0.049805 z"
     id="path971"
     inkscape:connector-curvature="0" />
  <path
     style="opacity:0.55;fill:#00a000;fill-opacity:1;stroke:#ffffff;stroke-width:0.00078125;stroke-miterlimit:4;stroke-dasharray:none;stroke-opacity:1"
     d="m 20.010653,9.7599408 c -2.2e-5,-0.0017 0.320341,-0.3286519 0.711918,-0.7265625 2.287869,-2.3248752 3.17913,-3.2327139 3.181944,-3.2411283 0.0017,-0.00497 -0.0594,-0.067024 -0.73326,-0.7451714 -0.301621,-0.3035386 -0.547664,-0.552626 -0.546762,-0.5535275 0.0017,-0.00171 0.435335,0.4302597 0.980644,0.9769064 l 0.319132,0.3199158 -0.04349,0.044922 c -0.04194,0.043324 -0.153806,0.1570496 -0.397676,0.4042969 -0.121261,0.1229407 -0.438608,0.4455994 -1.425364,1.4492188 -0.327412,0.3330078 -0.649974,0.6608398 -0.716803,0.7285156 -0.06683,0.067676 -0.180357,0.1827918 -0.252283,0.2558133 -0.659314,0.6693582 -1.07794,1.0914027 -1.078,1.0868009 z"
     id="path973"
     inkscape:connector-curvature="0" />
  <path
     style="opacity:0.55;fill:#00a000;fill-opacity:1;stroke:#ffffff;stroke-width:0.00078125;stroke-miterlimit:4;stroke-dasharray:none;stroke-opacity:1"
     d=""
     id="path975"
     inkscape:connector-curvature="0" />
  <path
     style="opacity:0.55;fill:#00a000;fill-opacity:1;stroke:#ffffff;stroke-width:0.00078125;stroke-miterlimit:4;stroke-dasharray:none;stroke-opacity:1"
     d="m 17.447346,6.7751538 0.0011,-0.025728 0.611254,-0.6227092 c 0.336189,-0.34249 0.707984,-0.7211466 0.826212,-0.8414591 0.118227,-0.1203125 0.402147,-0.4094623 0.630934,-0.6425551 0.647402,-0.6595877 1.506461,-1.5343558 1.575736,-1.6045512 0.03447,-0.034932 0.06395,-0.063057 0.06551,-0.0625 0.0034,0.00122 0.02697,0.024497 0.768394,0.7589368 l 0.583509,0.5780133 -0.02226,0.00118 -0.02226,0.00118 L 22.20084,4.052062 C 21.79102,3.6448967 21.44073,3.3085185 21.274599,3.1626065 c -0.07317,-0.064261 -0.09752,-0.082427 -0.110524,-0.082427 -0.0056,0 -0.01831,0.00667 -0.02933,0.015382 -0.09203,0.072745 -1.584846,1.5700057 -3.15686,3.1662582 -0.215813,0.2191406 -0.423715,0.4300781 -0.462005,0.46875 l -0.06962,0.070312 z"
     id="path977"
     inkscape:connector-curvature="0" />
  <path
     style="opacity:0.55;fill:#00a000;fill-opacity:1;stroke:#ffffff;stroke-width:0.00078125;stroke-miterlimit:4;stroke-dasharray:none;stroke-opacity:1"
     d="m 17.450418,6.7715853 -3e-5,-0.021484 0.479345,-0.4882813 c 2.045602,-2.083735 3.2244,-3.2832031 3.226625,-3.2832031 0.0043,0 0.01356,0.00914 0.700331,0.6894571 0.110613,0.1095725 0.301676,0.2989768 0.424586,0.4208984 l 0.223472,0.2216757 -0.01546,5.86e-4 c -0.0085,3.222e-4 -0.01697,7.617e-4 -0.01881,9.765e-4 -0.0018,2.149e-4 -0.134184,-0.1288086 -0.2941,-0.2867187 -0.475459,-0.4694936 -0.738014,-0.7212832 -0.903064,-0.8660355 -0.09229,-0.080939 -0.104254,-0.08754 -0.130104,-0.071777 -0.02607,0.015895 -0.20163,0.1886362 -0.81211,0.7990582 -0.780581,0.7805064 -1.266716,1.2703469 -2.099316,2.115317 -0.348213,0.3533865 -0.50168,0.5088524 -0.659381,0.6679687 L 17.45045,6.7930702 Z"
     id="path979"
     inkscape:connector-curvature="0" />
  <path
     style="opacity:0.55;fill:#00a000;fill-opacity:1;stroke:#ffffff;stroke-width:0.00078125;stroke-miterlimit:4;stroke-dasharray:none;stroke-opacity:1"
     d="m 17.4543,6.7667641 -1.3e-5,-0.018493 0.12417,-0.1260381 c 0.06829,-0.069321 0.699763,-0.7122687 1.403266,-1.4287726 1.732818,-1.7648398 2.171874,-2.2109375 2.176037,-2.2109375 0.0036,0 0.05401,0.049691 0.812152,0.8003991 0.235254,0.2329472 0.451457,0.4469821 0.480451,0.4756332 l 0.05272,0.052093 h -0.01664 c -0.01881,0 0.02463,0.041096 -0.462446,-0.4375 -0.41128,-0.4041156 -0.634936,-0.6167715 -0.778696,-0.7403973 -0.06811,-0.058574 -0.08184,-0.062973 -0.114923,-0.036824 -0.07868,0.062188 -1.63546,1.621924 -2.929871,2.9354243 -0.235011,0.2384765 -0.499046,0.505664 -0.586744,0.59375 l -0.159452,0.1601562 z"
     id="path981"
     inkscape:connector-curvature="0" />
  <path
     style="opacity:0.55;fill:#00a000;fill-opacity:1;stroke:#ffffff;stroke-width:0.00078125;stroke-miterlimit:4;stroke-dasharray:none;stroke-opacity:1"
     d="m 17.458971,6.7613634 c 0.0011,-0.015724 0.02904,-0.044458 1.257034,-1.2948894 2.002257,-2.0388446 2.436712,-2.4800449 2.442127,-2.4800449 0.0021,0 0.06999,0.065489 0.150936,0.1455317 1.070007,1.0580849 1.184546,1.1723688 1.178419,1.1757975 -0.0042,0.00234 -0.0094,0.00149 -0.01549,-0.00252 -0.01179,-0.00772 -0.09212,-0.085333 -0.339969,-0.3284646 C 22.022459,3.8692889 21.888846,3.7382845 21.835109,3.6856478 21.497457,3.3549131 21.228093,3.1059384 21.186645,3.0862703 c -0.01722,-0.00817 -0.03249,-0.00765 -0.0477,0.00162 -0.04819,0.029382 -1.326192,1.3083941 -2.978215,2.9805675 -0.32581,0.3297844 -0.617257,0.6242174 -0.64766,0.6542955 l -0.05528,0.054687 z"
     id="path983"
     inkscape:connector-curvature="0" />
  <path
     style="opacity:0.55;fill:#00a000;fill-opacity:1;stroke:#ffffff;stroke-width:0.00078125;stroke-miterlimit:4;stroke-dasharray:none;stroke-opacity:1"
     d="m 17.462099,6.7628406 c 0,-0.016971 -0.03726,0.021338 1.703117,-1.7510209 1.445564,-1.4721277 1.987136,-2.0214844 1.992839,-2.0214844 0.0047,0 0.113813,0.1072378 0.729825,0.7174169 0.527613,0.5226163 0.603143,0.5989894 0.592375,0.5989894 -0.0072,0 -0.05394,-0.04483 -0.397062,-0.3805921 C 21.710271,3.5612225 21.694763,3.5461209 21.592959,3.448756 21.389625,3.2542897 21.237954,3.1173636 21.197367,3.0916246 c -0.02259,-0.014327 -0.04545,-0.015383 -0.06189,-0.00286 -0.07126,0.0543 -1.249977,1.234118 -3.086181,3.0890696 -0.613707,0.6199729 -0.587198,0.5935632 -0.587198,0.5850053 z"
     id="path985"
     inkscape:connector-curvature="0" />
  <path
     style="opacity:0.55;fill:#00a000;fill-opacity:1;stroke:#ffffff;stroke-width:0.00078125;stroke-miterlimit:4;stroke-dasharray:none;stroke-opacity:1"
     d="m 17.466015,6.7575111 c -1.1e-5,-0.00503 0.04227,-0.051464 0.117002,-0.1285039 0.387458,-0.3994272 2.917264,-2.9751161 3.399101,-3.4607498 l 0.174316,-0.1756891 0.01318,0.010187 c 0.01431,0.011054 0.626535,0.6156538 1.038359,1.02542 0.140754,0.1400504 0.25461,0.2559423 0.253015,0.2575376 -0.0016,0.0016 -0.02177,-0.015485 -0.04484,-0.037957 C 22.393082,4.2252849 22.202822,4.0397943 21.993349,3.8355551 21.783877,3.6313158 21.573818,3.4276465 21.526552,3.3829568 21.345371,3.2116496 21.218024,3.0993066 21.189878,3.0859505 c -0.02012,-0.00955 -0.04213,-0.00826 -0.05736,0.00335 -0.06327,0.04826 -1.303076,1.2881965 -2.808937,2.8092373 -0.589186,0.5951257 -0.857555,0.8639343 -0.857566,0.8589733 z"
     id="path987"
     inkscape:connector-curvature="0" />
  <path
     style="opacity:0.55;fill:#00a000;fill-opacity:1;stroke:#ffffff;stroke-width:0.00078125;stroke-miterlimit:4;stroke-dasharray:none;stroke-opacity:1"
     d="m 17.516787,6.7033534 c 0,-0.00201 0.02069,-0.024831 0.04599,-0.050718 0.449509,-0.4600642 0.656301,-0.6712282 1.170741,-1.1954935 1.143503,-1.1653418 2.183535,-2.2218501 2.356867,-2.394206 0.06521,-0.064839 0.06661,-0.065958 0.07553,-0.06001 0.02028,0.013535 1.250915,1.2332054 1.247618,1.2365026 -0.0011,0.0011 -0.07279,-0.067275 -0.159328,-0.1519384 -0.57238,-0.5600125 -0.817396,-0.7950928 -0.951699,-0.9131076 -0.100955,-0.08871 -0.125859,-0.1037731 -0.155438,-0.094011 -0.0092,0.00304 -0.04106,0.030474 -0.09642,0.083038 -0.131933,0.1252683 -1.617604,1.6128374 -2.569736,2.573019 -0.955674,0.9637536 -0.964113,0.9722175 -0.964113,0.9669243 z"
     id="path989"
     inkscape:connector-curvature="0" />
  <path
     style="opacity:0.55;fill:#00a000;fill-opacity:1;stroke:#ffffff;stroke-width:0.00078125;stroke-miterlimit:4;stroke-dasharray:none;stroke-opacity:1"
     d=""
     id="path991"
     inkscape:connector-curvature="0" />
  <path
     style="opacity:0.55;fill:#00a000;fill-opacity:1;stroke:#ffffff;stroke-width:0.00078125;stroke-miterlimit:4;stroke-dasharray:none;stroke-opacity:1"
     d="m 17.447203,6.8187148 c 9.93e-4,-0.0093 0.07084,-0.082116 0.369988,-0.3857422 0.202819,-0.2058528 0.431418,-0.4375591 0.507997,-0.5149029 0.07658,-0.077344 0.297252,-0.3005859 0.490385,-0.4960937 1.008639,-1.021044 2.106956,-2.1208602 2.274938,-2.2780433 0.04153,-0.038859 0.06691,-0.059847 0.07237,-0.059847 0.02301,0 0.215744,0.174818 0.570617,0.5175607 0.255602,0.2468646 0.75278,0.7369063 0.750227,0.739459 -0.001,0.00104 -0.0091,-0.00465 -0.01796,-0.012635 -0.01821,-0.016453 -0.02618,-0.015683 -0.01021,9.869e-4 0.0058,0.006 0.01046,0.012463 0.01046,0.014356 0,0.00189 -0.101513,-0.097555 -0.225585,-0.2209928 C 21.761842,3.6466878 21.313346,3.2184912 21.194848,3.1245717 l -0.03092,-0.024509 -0.02316,0.020064 c -0.125697,0.1088938 -1.481021,1.4691356 -3.16052,3.1719905 -0.291875,0.2959342 -0.531489,0.5380621 -0.532474,0.5380621 -9.86e-4,0 -0.0012,-0.00516 -5.68e-4,-0.011464 z"
     id="path993"
     inkscape:connector-curvature="0" />
  <path
     style="opacity:1;fill:#00a000;fill-opacity:1;stroke:#ffffff;stroke-width:0.00078125;stroke-miterlimit:4;stroke-dasharray:none;stroke-opacity:1"
     d="m 17.45038,6.8186857 c 0,-0.011635 0.104313,-0.1180647 1.466555,-1.4963178 0.630769,-0.6381833 2.113494,-2.121788 2.183802,-2.1850981 0.02791,-0.025133 0.05464,-0.046674 0.05941,-0.04787 0.01073,-0.00269 0.02048,0.00396 0.08125,0.055444 0.115347,0.097711 0.294411,0.2671809 0.691406,0.65436 0.387065,0.3774935 0.522195,0.5128952 0.516567,0.5176057 -0.0039,0.00323 -0.07023,-0.060106 -0.286517,-0.2734375 -0.409944,-0.4043485 -0.681366,-0.66522 -0.874581,-0.8405845 -0.05454,-0.049497 -0.119373,-0.1030777 -0.124734,-0.1030777 -0.02082,0 -1.216666,1.1977798 -3.109232,3.1142578 -0.330445,0.3346192 -0.601509,0.6083985 -0.602366,0.6083985 -8.57e-4,0 -0.0016,-0.00166 -0.0016,-0.00368 z"
     id="path995"
     inkscape:connector-curvature="0" />
  <path
     style="opacity:1;fill:#00a000;fill-opacity:1;stroke:#ffffff;stroke-width:0.00078125;stroke-miterlimit:4;stroke-dasharray:none;stroke-opacity:1"
     d="M 22.513126,4.4679959 C 21.770975,3.726181 21.16504,3.1192416 21.166602,3.1192416 c 0.0099,0 0.03819,0.020567 0.08065,0.058682 0.285651,0.256423 0.712467,0.6738084 1.831051,1.7905918 0.449563,0.448839 0.817387,0.8174791 0.817387,0.8192 0,0.00565 -0.02414,0.030765 -0.02873,0.02989 C 23.86446,5.817135 23.255268,5.2098108 22.513118,4.467996 Z"
     id="path997"
     inkscape:connector-curvature="0" />
  <path
     style="opacity:1;fill:#00a000;fill-opacity:1;stroke:#ffffff;stroke-width:0.00078125;stroke-miterlimit:4;stroke-dasharray:none;stroke-opacity:1"
     d="m 22.085296,4.0490788 c -0.06004,-0.060074 -0.108295,-0.1101041 -0.10722,-0.1111782 0.0011,-0.00107 0.05196,0.048077 0.113079,0.1092253 0.06112,0.061148 0.109369,0.1111782 0.10722,0.1111782 -0.0021,0 -0.05303,-0.049151 -0.113079,-0.1092253 z"
     id="path999"
     inkscape:connector-curvature="0" />
  <path
     style="opacity:1;fill:#00a000;fill-opacity:1;stroke:#ffffff;stroke-width:0.00078125;stroke-miterlimit:4;stroke-dasharray:none;stroke-opacity:1"
     d=""
     id="path1001"
     inkscape:connector-curvature="0" />
  <path
     style="opacity:1;fill:#00a000;fill-opacity:1;stroke:#ffffff;stroke-width:0.00078125;stroke-miterlimit:4;stroke-dasharray:none;stroke-opacity:1"
     d="m 17.447217,6.8940762 c 0.001,-0.010532 0.26483,-0.2785192 1.858143,-1.8876951 l 1.856932,-1.8754203 0.498537,0.495835 c 0.620291,0.6169307 0.698711,0.6955708 0.693624,0.6955708 -0.0022,0 -0.0062,-0.00211 -0.0088,-0.00469 -0.0084,-0.00842 -0.0049,0.00199 0.0038,0.011256 0.0047,0.00496 0.0077,0.00976 0.0068,0.010666 -9.03e-4,9.024e-4 -0.26986,-0.2652849 -0.597681,-0.5915271 l -0.595971,-0.593165 -1.810923,1.8288472 c -0.996007,1.005866 -1.832241,1.849941 -1.858297,1.8757223 -0.04418,0.043713 -0.04729,0.046047 -0.04616,0.0346 z"
     id="path1003"
     inkscape:connector-curvature="0" />
  <path
     style="opacity:1;fill:#00a000;fill-opacity:1;stroke:#ffffff;stroke-width:0.00078125;stroke-miterlimit:4;stroke-dasharray:none;stroke-opacity:1"
     d="m 17.45038,6.8935661 c 0,-0.00456 0.143958,-0.1527342 0.442996,-0.4559651 0.29839,-0.3025741 0.467996,-0.4739884 2.124892,-2.1475439 l 1.143856,-1.1553564 0.416589,0.4138931 c 0.642299,0.6381422 0.76775,0.7645291 0.761319,0.7669971 -0.0037,0.00142 -0.02931,-0.021499 -0.07359,-0.065838 -0.03736,-0.037406 -0.06976,-0.068011 -0.072,-0.068011 -0.0045,0 -0.156249,-0.1517256 -0.158606,-0.158571 -8.09e-4,-0.00235 -0.197165,-0.19913 -0.436347,-0.4372873 -0.333115,-0.3316888 -0.436165,-0.432149 -0.440385,-0.4293197 -0.003,0.00203 -0.404859,0.4071116 -0.892951,0.900178 -1.446831,1.4615759 -2.812696,2.8398437 -2.814288,2.8398437 -8.16e-4,0 -0.0015,-0.00136 -0.0015,-0.00302 z"
     id="path1005"
     inkscape:connector-curvature="0" />
  <path
     style="opacity:1;fill:#00a000;fill-opacity:1;stroke:#ffffff;stroke-width:0.00078125;stroke-miterlimit:4;stroke-dasharray:none;stroke-opacity:1"
     d="M 22.52067,4.472127 C 21.781597,3.7337922 21.177682,3.1289192 21.178636,3.1279649 c 0.0096,-0.0096 0.361902,0.3207055 0.771702,0.7235342 0.40686,0.3999395 1.941449,1.9317186 1.941449,1.937895 0,0.00453 -0.0202,0.02516 -0.02463,0.02516 -0.0015,0 -0.607414,-0.6040922 -1.346487,-1.3424271 z"
     id="path1007"
     inkscape:connector-curvature="0" />
  <path
     style="opacity:1;fill:#00a000;fill-opacity:1;stroke:#ffffff;stroke-width:0.00078125;stroke-miterlimit:4;stroke-dasharray:none;stroke-opacity:1"
     d="m 22.535258,4.4822469 c -0.73096,-0.7306205 -1.326936,-1.3278373 -1.32439,-1.3271484 0.01539,0.00417 0.294072,0.2658435 0.604539,0.5676587 0.263806,0.2564549 1.947989,1.9342488 2.034215,2.0264986 l 0.03937,0.042124 -0.0091,0.00963 c -0.005,0.0053 -0.01054,0.00963 -0.01236,0.00963 -0.0018,0 -0.601367,-0.5977804 -1.332327,-1.3284009 z"
     id="path1009"
     inkscape:connector-curvature="0" />
  <path
     style="opacity:1;fill:#00a000;fill-opacity:1;stroke:#ffffff;stroke-width:0.00078125;stroke-miterlimit:4;stroke-dasharray:none;stroke-opacity:1"
     d="m 22.473281,4.3119662 c -7.79e-4,-0.0018 -0.0146,-0.014477 -0.03071,-0.028173 -0.04519,-0.038409 -0.292899,-0.2817225 -0.2919,-0.2867204 4.86e-4,-0.00244 -0.0018,-0.00451 -0.005,-0.00461 -0.0032,-9.76e-5 -0.0059,-0.00281 -0.0059,-0.00604 0,-0.00322 -0.0018,-0.00589 -0.0039,-0.00592 -0.0069,-1.056e-4 -0.01387,-0.00622 -0.01149,-0.010073 0.0013,-0.00205 -2e-5,-0.00325 -0.0029,-0.00266 -0.0028,5.904e-4 -0.0048,-9.553e-4 -0.0043,-0.00343 4.68e-4,-0.00248 -0.0017,-0.00665 -0.0049,-0.00927 -0.0032,-0.00262 -0.0057,-0.00368 -0.0057,-0.00235 0,0.00132 -0.0044,-0.00142 -0.0098,-0.00609 -0.0054,-0.00467 -0.0098,-0.010811 -0.0098,-0.013646 0,-0.00284 -0.0019,-0.00516 -0.0041,-0.00516 -0.0023,0 -0.0029,-0.00201 -0.0014,-0.00447 0.0017,-0.00278 0.02871,0.02141 0.07152,0.064107 0.08462,0.084403 0.205972,0.2016857 0.219146,0.2118004 0.0054,0.00412 -0.03132,-0.033956 -0.08153,-0.084622 -0.05021,-0.050666 -0.09108,-0.093211 -0.09082,-0.094545 2.61e-4,-0.00133 -3.08e-4,-0.00199 -0.0013,-0.00145 -0.0037,0.00209 -0.02907,-0.025872 -0.02681,-0.029543 0.0013,-0.00214 5.35e-4,-0.00274 -0.0017,-0.00132 -0.0023,0.00142 -0.08535,-0.077804 -0.186332,-0.1777647 -0.126676,-0.1253937 -0.180646,-0.1812788 -0.177152,-0.1834382 0.0056,-0.00344 0.02676,0.014353 0.02543,0.021351 -4.36e-4,0.00228 9.66e-4,0.00428 0.0031,0.00443 0.0088,6.265e-4 0.02568,0.015184 0.02368,0.020388 -0.0012,0.00304 -3.73e-4,0.00441 0.0018,0.00308 0.0052,-0.0032 0.05123,0.040957 0.04806,0.046084 -0.0014,0.0022 -7.1e-4,0.00291 0.0014,0.00158 0.005,-0.00306 0.02579,0.018293 0.02176,0.022315 -0.0016,0.00164 -0.0011,0.0024 0.0012,0.00168 0.0045,-0.0014 0.518265,0.5049076 0.515342,0.5078313 -9.6e-4,9.6e-4 -0.0049,-6.719e-4 -0.0087,-0.00363 -0.0058,-0.0045 -0.0057,-0.00395 5.32e-4,0.00337 0.0041,0.00481 0.0063,0.00989 0.0049,0.011292 -0.0045,0.00447 0.0055,0.012662 0.01232,0.010114 0.0056,-0.00208 0.0058,-0.00151 0.0015,0.00374 -0.0043,0.00523 -0.0035,0.00742 0.0051,0.014143 0.0056,0.00437 0.01222,0.00873 0.0148,0.00968 0.0035,0.00129 0.0036,0.00292 2.43e-4,0.00646 -0.0024,0.0026 -0.0051,0.00326 -0.0059,0.00146 z m -0.04457,-0.060221 c -0.0085,-0.00876 -0.01896,-0.017761 -0.02325,-0.019993 -0.0043,-0.00223 9.1e-4,0.00494 0.01157,0.015934 0.01066,0.010996 0.02113,0.019993 0.02325,0.019993 0.0021,0 -0.0031,-0.00717 -0.01157,-0.015934 z"
     id="path1011"
     inkscape:connector-curvature="0" />
  <path
     style="opacity:1;fill:#00a000;fill-opacity:1;stroke:#ffffff;stroke-width:0.00078125;stroke-miterlimit:4;stroke-dasharray:none;stroke-opacity:1"
     d=""
     id="path1013"
     inkscape:connector-curvature="0" />
  <path
     style="opacity:1;fill:#00a000;fill-opacity:1;stroke:#ffffff;stroke-width:0.00078125;stroke-miterlimit:4;stroke-dasharray:none;stroke-opacity:1"
     d="m 17.490094,6.7755414 c 0.0065,-0.01923 2.732129,-2.7674592 3.349403,-3.3771661 0.271801,-0.2684696 0.312209,-0.3064775 0.32583,-0.3064775 0.01348,0 0.102745,0.075989 0.247794,0.2109327 0.135219,0.1257972 0.302867,0.2877619 0.679838,0.6567904 0.285085,0.2790792 0.320732,0.3147999 0.317436,0.3180954 -0.0025,0.00251 -0.02757,-0.021717 -0.377983,-0.3656328 -0.519164,-0.5095295 -0.8427,-0.8122966 -0.868084,-0.8123571 -0.0037,-8.8e-6 -0.03272,0.024121 -0.06445,0.053622 -0.07932,0.073737 -0.924992,0.9176035 -1.498393,1.4951899 -0.765941,0.7715311 -0.877549,0.8841974 -1.508164,1.5224609 -0.33061,0.3346191 -0.601877,0.6083984 -0.602817,0.6083984 -9.4e-4,0 -0.0011,-0.00174 -4.07e-4,-0.00386 z"
     id="path1015"
     inkscape:connector-curvature="0" />
  <path
     style="opacity:1;fill:#00a000;fill-opacity:1;stroke:#ffffff;stroke-width:0.00078125;stroke-miterlimit:4;stroke-dasharray:none;stroke-opacity:1"
     d=""
     id="path1017"
     inkscape:connector-curvature="0" />
  <path
     style="opacity:1;fill:#00a000;fill-opacity:1;stroke:#ffffff;stroke-width:0.00078125;stroke-miterlimit:4;stroke-dasharray:none;stroke-opacity:1"
     d="m 22.435822,4.3380997 c -0.195995,-0.1949505 -0.355246,-0.3555644 -0.35389,-0.3569196 0.0014,-0.00136 0.05361,0.048386 0.11612,0.1105371 0.06251,0.062151 0.223437,0.2217649 0.357614,0.3546984 0.134176,0.1329334 0.242282,0.2426967 0.240234,0.2439184 -0.002,0.00122 -0.164082,-0.1572837 -0.360078,-0.3522343 z"
     id="path1019"
     inkscape:connector-curvature="0" />
  <path
     style="opacity:1;fill:#00a000;fill-opacity:1;stroke:#ffffff;stroke-width:0.00078125;stroke-miterlimit:4;stroke-dasharray:none;stroke-opacity:1"
     d="m 22.619915,4.5635775 c -1.153787,-1.152377 -1.323777,-1.3233416 -1.31147,-1.3189908 0.01082,0.00383 0.386958,0.3629365 0.602873,0.5755843 0.260607,0.2566636 1.904725,1.8958929 1.939031,1.9332659 0.03388,0.036907 0.03454,0.038002 0.0277,0.04556 -0.0039,0.00426 -0.0085,0.00774 -0.01023,0.00774 -0.0018,0 -0.563331,-0.5594238 -1.247907,-1.2431641 z"
     id="path1021"
     inkscape:connector-curvature="0" />
  <path
     style="opacity:1;fill:#00a000;fill-opacity:1;stroke:#ffffff;stroke-width:0.00078125;stroke-miterlimit:4;stroke-dasharray:none;stroke-opacity:1"
     d="M 23.143775,5.0831088 C 22.629471,4.5703986 22.419267,4.3632701 22.412966,4.3629922 c -0.0049,-2.144e-4 -0.01162,-0.00317 -0.01501,-0.00656 -0.0078,-0.00784 -0.0081,-0.013183 -3.08e-4,-0.00673 0.0032,0.00267 0.0059,0.00355 0.0059,0.00195 0,-0.0016 0.0031,-6.211e-4 0.0068,0.00218 0.0038,0.0028 -0.226,-0.2280679 -0.510577,-0.5130336 -0.284577,-0.2849657 -0.516445,-0.5190873 -0.515262,-0.5202702 0.0026,-0.00264 0.131964,0.1198269 0.364618,0.3452611 0.266896,0.2586135 2.060545,2.0447935 2.108065,2.0992865 0.01875,0.021499 0.02239,0.027778 0.0187,0.032227 -0.0025,0.00304 -0.0058,0.00553 -0.0074,0.00553 -0.0015,0 -0.327664,-0.3238769 -0.724744,-0.7197265 z M 22.380068,4.3421611 c 0,-0.002 -0.0035,-0.00476 -0.0078,-0.00612 -0.0043,-0.00136 -0.0078,-0.00508 -0.0078,-0.00826 0,-0.00476 0.0017,-0.00455 0.0096,0.00124 0.01048,0.00766 0.01581,0.016784 0.0098,0.016784 -0.0021,0 -0.0038,-0.00164 -0.0038,-0.00364 z m -0.03516,-0.017841 c -0.0027,-0.00322 -0.0033,-0.00589 -0.0015,-0.00592 0.0019,-3.12e-5 0.0015,-0.00135 -9.3e-4,-0.00293 -0.0024,-0.00158 -0.0072,-0.00902 -0.0108,-0.016542 -0.0036,-0.00752 -0.0042,-0.010295 -0.0015,-0.00617 0.0027,0.00413 0.01086,0.014234 0.01809,0.022461 0.0088,0.010005 0.01122,0.014958 0.0073,0.014958 -0.0032,0 -0.008,-0.00264 -0.0107,-0.00586 z"
     id="path1023"
     inkscape:connector-curvature="0" />
  <path
     style="opacity:1;fill:#00a000;fill-opacity:1;stroke:#ffffff;stroke-width:0.00078125;stroke-miterlimit:4;stroke-dasharray:none;stroke-opacity:1"
     d=""
     id="path1025"
     inkscape:connector-curvature="0" />
  <path
     style="opacity:1;fill:#00a000;fill-opacity:1;stroke:#ffffff;stroke-width:0.00078125;stroke-miterlimit:4;stroke-dasharray:none;stroke-opacity:1"
     d=""
     id="path1027"
     inkscape:connector-curvature="0" />
  <path
     style="opacity:1;fill:#00a000;fill-opacity:1;stroke:#ffffff;stroke-width:0.00078125;stroke-miterlimit:4;stroke-dasharray:none;stroke-opacity:1"
     d=""
     id="path1029"
     inkscape:connector-curvature="0" />
  <path
     style="opacity:1;fill:#00a000;fill-opacity:1;stroke:#ffffff;stroke-width:0.00078125;stroke-miterlimit:4;stroke-dasharray:none;stroke-opacity:1"
     d=""
     id="path1031"
     inkscape:connector-curvature="0" />
  <path
     style="opacity:1;fill:#00a000;fill-opacity:1;stroke:#ffffff;stroke-width:0.00078125;stroke-miterlimit:4;stroke-dasharray:none;stroke-opacity:1"
     d=""
     id="path1033"
     inkscape:connector-curvature="0" />
  <path
     style="opacity:1;fill:#00a000;fill-opacity:1;stroke:#ffffff;stroke-width:0.00078125;stroke-miterlimit:4;stroke-dasharray:none;stroke-opacity:1"
     d="m 21.034243,3.2013952 c 0.01918,-0.019269 0.03575,-0.034156 0.03682,-0.033083 0.0026,0.00255 -0.06269,0.068117 -0.06778,0.068117 -0.0022,0 0.01178,-0.015765 0.03096,-0.035034 z"
     id="path1035"
     inkscape:connector-curvature="0" />
  <path
     style="opacity:1;fill:#00a000;fill-opacity:1;stroke:#ffffff;stroke-width:0.00078125;stroke-miterlimit:4;stroke-dasharray:none;stroke-opacity:1"
     d="m 21.044837,3.2290716 c -0.0037,-0.0023 0.0095,-0.017113 0.04679,-0.05261 0.02857,-0.027174 0.05348,-0.049407 0.05536,-0.049407 0.0043,0 -0.03536,0.044555 -0.07034,0.078978 -0.01829,0.018 -0.02828,0.025237 -0.03181,0.02304 z"
     id="path1037"
     inkscape:connector-curvature="0" />
  <path
     style="opacity:1;fill:#00a000;fill-opacity:1;stroke:#ffffff;stroke-width:0.00078125;stroke-miterlimit:4;stroke-dasharray:none;stroke-opacity:1"
     d=""
     id="path1039"
     inkscape:connector-curvature="0" />
  <path
     style="opacity:1;fill:#00a000;fill-opacity:1;stroke:#ffffff;stroke-width:0.00078125;stroke-miterlimit:4;stroke-dasharray:none;stroke-opacity:1"
     d="m 17.833214,6.5044916 c -1.1e-5,-0.00188 0.138407,-0.1433236 0.307596,-0.3143146 0.55971,-0.5656699 1.464882,-1.4800361 2.248652,-2.2714918 l 0.773053,-0.7806345 0.168347,0.1673482 c 0.468605,0.4658257 0.9828,0.9802239 0.9828,0.9831887 0,0.0065 -0.126279,-0.1178459 -0.602557,-0.5933203 C 21.44632,3.4309291 21.214173,3.2007669 21.195223,3.1837956 L 21.160773,3.1529386 20.92742,3.3870665 C 20.6818,3.6335018 20.387269,3.930728 19.069667,5.2618194 18.13846,6.2025593 17.833248,6.5093073 17.833218,6.5044913 Z"
     id="path1041"
     inkscape:connector-curvature="0" />
  <path
     style="opacity:1;fill:#00a000;fill-opacity:1;stroke:#ffffff;stroke-width:0.00078125;stroke-miterlimit:4;stroke-dasharray:none;stroke-opacity:1"
     d=""
     id="path1043"
     inkscape:connector-curvature="0" />
  <path
     style="opacity:1;fill:#00a000;fill-opacity:1;stroke:#ffffff;stroke-width:0.00078125;stroke-miterlimit:4;stroke-dasharray:none;stroke-opacity:1"
     d=""
     id="path1045"
     inkscape:connector-curvature="0" />
  <path
     style="opacity:1;fill:#00a000;fill-opacity:1;stroke:#ffffff;stroke-width:0.00078125;stroke-miterlimit:4;stroke-dasharray:none;stroke-opacity:1"
     d="m 20.993454,3.2881295 c -1.36e-4,-0.00644 0.02588,-0.03483 0.02903,-0.03168 0.0013,0.00133 -0.0046,0.010112 -0.01325,0.019518 -0.0086,0.00941 -0.01572,0.014879 -0.01578,0.012162 z"
     id="path1047"
     inkscape:connector-curvature="0" />
  <path
     style="opacity:1;fill:#00a000;fill-opacity:1;stroke:#ffffff;stroke-width:0.0015625;stroke-miterlimit:4;stroke-dasharray:none;stroke-opacity:1"
     d=""
     id="path1049"
     inkscape:connector-curvature="0" />
  <path
     style="opacity:1;fill:#00a000;fill-opacity:1;stroke:#ffffff;stroke-width:0.0015625;stroke-miterlimit:4;stroke-dasharray:none;stroke-opacity:1"
     d="m 17.463295,12.415403 c 0,-0.0044 0.02839,-0.036 0.06308,-0.07028 0.10831,-0.107003 0.175012,-0.184098 0.16476,-0.190434 -0.006,-0.0037 0.257827,-0.277288 0.745369,-0.772808 0.683888,-0.695076 0.757002,-0.767043 0.779277,-0.767043 0.02405,0 0.02287,0.0017 -0.0541,0.08008 -0.04327,0.04404 -0.397918,0.405273 -0.788098,0.802734 -0.904868,0.921753 -0.910287,0.927217 -0.910287,0.917749 z"
     id="path1055"
     inkscape:connector-curvature="0" />
  <path
     style="opacity:1;fill:#00a000;fill-opacity:1;stroke:#ffffff;stroke-width:0.0015625;stroke-miterlimit:4;stroke-dasharray:none;stroke-opacity:1"
     d="m 13.093089,16.784764 c 0.06802,-0.0702 1.57604,-1.603465 4.389412,-4.462891 1.348627,-1.370703 2.457554,-2.4934774 2.464283,-2.4950539 0.0067,-0.00158 -0.08056,0.091588 -0.193982,0.2070309 -2.251068,2.291254 -6.69261,6.799742 -6.698773,6.799742 -0.0045,0 0.01304,-0.02197 0.03906,-0.04883 z"
     id="path1057"
     inkscape:connector-curvature="0" />
  <path
     style="opacity:1;fill:#00a000;fill-opacity:1;stroke:#ffffff;stroke-width:0.0015625;stroke-miterlimit:4;stroke-dasharray:none;stroke-opacity:1"
     d=""
     id="path1059"
     inkscape:connector-curvature="0" />
  <path
     style="opacity:1;fill:#00a000;fill-opacity:1;stroke:#ffffff;stroke-width:0.0015625;stroke-miterlimit:4;stroke-dasharray:none;stroke-opacity:1"
     d=""
     id="path1061"
     inkscape:connector-curvature="0" />
  <path
     style="opacity:1;fill:#00a000;fill-opacity:1;stroke:#ffffff;stroke-width:0.0015625;stroke-miterlimit:4;stroke-dasharray:none;stroke-opacity:1"
     d="m 17.60392,12.181108 c 0,-0.0043 0.07383,-0.08158 0.164062,-0.171735 0.09023,-0.09016 0.164063,-0.160407 0.164063,-0.15611 0,0.0043 -0.07383,0.08158 -0.164063,0.171735 -0.09023,0.09016 -0.164062,0.160407 -0.164062,0.15611 z"
     id="path1063"
     inkscape:connector-curvature="0" />
  <path
     style="opacity:1;fill:#00a000;fill-opacity:1;stroke:#ffffff;stroke-width:0.0015625;stroke-miterlimit:4;stroke-dasharray:none;stroke-opacity:1"
     d="m 13.038457,16.792576 c 0.07204,-0.07486 1.938903,-1.974444 2.17093,-2.208984 0.187649,-0.189682 4.237588,-4.307684 4.578439,-4.6553839 0.0564,-0.057531 0.106109,-0.1032344 0.11047,-0.1015625 0.0044,0.00167 -0.329915,0.3461594 -0.742834,0.7655264 -0.412918,0.419368 -1.963364,1.995247 -3.445435,3.501954 -1.48207,1.506706 -2.698357,2.739466 -2.702858,2.739466 -0.0045,0 0.0096,-0.01846 0.03129,-0.04102 z"
     id="path1065"
     inkscape:connector-curvature="0" />
  <path
     style="opacity:1;fill:#00a000;fill-opacity:1;stroke:#ffffff;stroke-width:0.0015625;stroke-miterlimit:4;stroke-dasharray:none;stroke-opacity:1"
     d="m 17.705482,12.079377 c 0,-0.0043 0.0334,-0.04107 0.07422,-0.08172 0.04082,-0.04065 0.07422,-0.07039 0.07422,-0.0661 0,0.0043 -0.0334,0.04107 -0.07422,0.08172 -0.04082,0.04065 -0.07422,0.07039 -0.07422,0.0661 z"
     id="path1067"
     inkscape:connector-curvature="0" />
  <path
     style="opacity:1;fill:#00a000;fill-opacity:1;stroke:#ffffff;stroke-width:0.0015625;stroke-miterlimit:4;stroke-dasharray:none;stroke-opacity:1"
     d="m 17.929219,11.860936 c 0.0025,-0.0064 0.0081,-0.01172 0.01243,-0.01172 0.0046,0 0.0038,0.005 -0.0018,0.01172 -0.01239,0.01493 -0.01637,0.01493 -0.01064,0 z"
     id="path1069"
     inkscape:connector-curvature="0" />
  <path
     style="opacity:1;fill:#00a000;fill-opacity:1;stroke:#ffffff;stroke-width:0.0015625;stroke-miterlimit:4;stroke-dasharray:none;stroke-opacity:1"
     d=""
     id="path1071"
     inkscape:connector-curvature="0" />
  <path
     style="opacity:1;fill:#00a000;fill-opacity:1;stroke:#ffffff;stroke-width:0.0015625;stroke-miterlimit:4;stroke-dasharray:none;stroke-opacity:1"
     d=""
     id="path1073"
     inkscape:connector-curvature="0" />
  <path
     style="opacity:1;fill:#00a000;fill-opacity:1;stroke:#ffffff;stroke-width:0.0015625;stroke-miterlimit:4;stroke-dasharray:none;stroke-opacity:1"
     d=""
     id="path1075"
     inkscape:connector-curvature="0" />
  <path
     style="opacity:1;fill:#00a000;fill-opacity:1;stroke:#ffffff;stroke-width:0.0015625;stroke-miterlimit:4;stroke-dasharray:none;stroke-opacity:1"
     d="m 19.319094,10.487889 c 0.541701,-0.5523523 0.649902,-0.6584841 0.667169,-0.6544081 0.01497,0.00353 -0.02463,0.04685 -0.285997,0.3127771 -0.166858,0.169771 -0.336545,0.342896 -0.377083,0.384723 -0.06121,0.06316 -0.07771,0.07605 -0.09732,0.07605 -0.0222,0 -0.01662,-0.0071 0.09323,-0.11914 z"
     id="path1077"
     inkscape:connector-curvature="0" />
  <path
     style="opacity:1;fill:#00a000;fill-opacity:1;stroke:#ffffff;stroke-width:0.0015625;stroke-miterlimit:4;stroke-dasharray:none;stroke-opacity:1"
     d=""
     id="path1079"
     inkscape:connector-curvature="0" />
  <path
     style="opacity:1;fill:#00a000;fill-opacity:1;stroke:#ffffff;stroke-width:0.0015625;stroke-miterlimit:4;stroke-dasharray:none;stroke-opacity:1"
     d=""
     id="path1081"
     inkscape:connector-curvature="0" />
</svg>
